<?xml version="1.0" encoding="UTF-8"?>
<svg version="1.1" xmlns="http://www.w3.org/2000/svg" width="1024" height="1024">
<path d="M0 0 C337.92 0 675.84 0 1024 0 C1024 337.92 1024 675.84 1024 1024 C686.08 1024 348.16 1024 0 1024 C0 686.08 0 348.16 0 0 Z " fill="#FAFAFA" transform="translate(0,0)"/>
<path d="M0 0 C6.85613382 6.85613382 5.30207538 25.23726877 5.3125 34.25 C5.24721504 43.66259457 4.67348939 52.72509752 3 62 C2.87882812 62.85980469 2.75765625 63.71960938 2.6328125 64.60546875 C-1.34945399 90.81528392 -12.31418887 116.19313922 -30 136 C-30.74121094 136.84949219 -31.48242188 137.69898438 -32.24609375 138.57421875 C-40.50115036 147.91659651 -49.16664456 156.32728196 -59 164 C-59.58668457 164.45777832 -60.17336914 164.91555664 -60.77783203 165.38720703 C-77.27495004 178.18691649 -94.79155208 188.81924949 -113 199 C-76.22909982 186.26889115 -39.92912385 172.47939643 -18.32421875 137.8125 C-17 136 -17 136 -14 134 C-12.11432076 133.74552441 -12.11432076 133.74552441 -9.9524231 133.73930359 C-8.72019516 133.72867638 -8.72019516 133.72867638 -7.46307373 133.71783447 C-6.56534241 133.72031189 -5.66761108 133.72278931 -4.74267578 133.7253418 C-3.79441925 133.72023087 -2.84616272 133.71511993 -1.86917114 133.70985413 C1.2721789 133.69592993 4.41331022 133.69691718 7.5546875 133.69921875 C9.73560671 133.69533307 11.91652516 133.69099867 14.09744263 133.68623352 C18.6722458 133.678765 23.24697181 133.67906696 27.82177734 133.68432617 C33.68528757 133.69011835 39.54848167 133.67319878 45.41193962 133.6499815 C49.91750944 133.63525064 54.42300305 133.63437164 58.92859268 133.63749123 C61.09034984 133.63697758 63.25211122 133.63173178 65.41384506 133.62167931 C68.43740117 133.60934646 71.46034052 133.61608815 74.48388672 133.62768555 C75.37756958 133.62004181 76.27125244 133.61239807 77.1920166 133.60452271 C83.39006676 133.65708437 86.67549068 134.86396441 91.3125 139.125 C94.18217546 144.0140767 93.48628722 149.57841872 92.17393494 154.98240662 C91.79458981 156.33992145 91.40261953 157.69395567 90.99975586 159.04467773 C90.78666779 159.79426758 90.57357971 160.54385742 90.35403442 161.31616211 C89.65205262 163.7753077 88.9335048 166.22927602 88.21484375 168.68359375 C87.71484887 170.42416905 87.21597424 172.16506649 86.71815491 173.90626526 C85.40446111 178.49086951 84.07697705 183.0713615 82.74609375 187.65100098 C80.64275483 194.89932791 78.562567 202.15436516 76.47740746 209.407938 C75.71788938 212.04800722 74.95661172 214.6875645 74.19514465 217.32707214 C71.08187781 228.13358693 68.05537208 238.95691456 65.19419861 249.83348083 C62.92508274 258.43968393 60.33443355 266.93593905 57.69140625 275.43359375 C56.529626 279.20158351 55.43895095 282.98083991 54.40234375 286.78515625 C54.14461182 287.72447998 53.88687988 288.66380371 53.62133789 289.6315918 C53.14310595 291.38948917 52.67398785 293.14990668 52.21655273 294.91333008 C49.7323981 304.00601412 45.26512364 312.8016882 38 319 C32.34946812 322.18930581 26.32028423 325.11668896 19.75444698 325.13701439 C18.44846441 325.1446262 18.44846441 325.1446262 17.11609834 325.15239179 C15.68033232 325.15313843 15.68033232 325.15313843 14.21556091 325.15390015 C12.69096735 325.16047353 12.69096735 325.16047353 11.13557392 325.1671797 C7.71334627 325.1805856 4.29114438 325.18675064 0.86889648 325.19287109 C-1.5783449 325.20077072 -4.02558512 325.20903959 -6.4728241 325.21765137 C-13.82948659 325.2416243 -21.18614483 325.25680301 -28.542833 325.26971143 C-30.6214102 325.27342411 -32.69998673 325.27739729 -34.77856326 325.2814641 C-47.69107857 325.30670441 -60.60359496 325.32875378 -73.51612949 325.34119225 C-76.50692817 325.34412187 -79.4977268 325.34708354 -82.48852539 325.35009766 C-83.23185947 325.35084371 -83.97519356 325.35158976 -84.74105292 325.35235842 C-96.77485119 325.3650042 -108.80850144 325.39821676 -120.84223057 325.43989949 C-133.20245045 325.48236135 -145.56259465 325.50589229 -157.92288727 325.51111281 C-164.86049738 325.51452242 -171.7978763 325.52622393 -178.73541451 325.55921555 C-185.2648379 325.59021566 -191.79393215 325.59560905 -198.32344246 325.58383179 C-200.71713257 325.58361101 -203.11084134 325.59191901 -205.50446701 325.60948563 C-208.77901915 325.63220474 -212.05211479 325.62386806 -215.32667542 325.60800171 C-216.26823772 325.6218838 -217.20980002 325.63576588 -218.17989451 325.65006864 C-226.2801924 325.55373049 -232.56849265 322.8214616 -238.8125 317.6875 C-245.4275586 309.56042801 -247.72400267 301.56668552 -250.0390625 291.54296875 C-250.40407132 290.01236775 -250.77046091 288.48209545 -251.13813782 286.95213318 C-251.91395085 283.71281845 -252.68109021 280.47162783 -253.44113159 277.22857666 C-254.63163787 272.14997079 -255.84196835 267.0762328 -257.05688477 262.00341797 C-257.46229799 260.31012022 -257.86770877 258.61682188 -258.27311707 256.92352295 C-258.47272726 256.08998039 -258.67233746 255.25643784 -258.87799644 254.39763641 C-259.47920827 251.88417587 -260.07856966 249.37028053 -260.67744446 246.85626221 C-263.64359392 234.41416525 -266.72761573 222.00661184 -269.9375 209.625 C-270.3608882 207.98483638 -270.78406736 206.34461879 -271.20703125 204.7043457 C-271.82824204 202.29612973 -272.44964286 199.88796434 -273.07192993 197.48002625 C-275.53689751 187.9368799 -277.96961156 178.38564979 -280.37893677 168.82830811 C-280.86876773 166.88930123 -281.36078366 164.95084474 -281.85519409 163.01300049 C-282.5367334 160.34079221 -283.21066033 157.66677009 -283.8828125 154.9921875 C-284.08327682 154.21296936 -284.28374115 153.43375122 -284.49028015 152.63092041 C-285.43908029 148.82126785 -286.23937909 145.00944843 -286.81982422 141.12548828 C-286.9283371 140.40612091 -287.03684998 139.68675354 -287.14865112 138.94558716 C-287 137 -287 137 -285.72791481 135.40305138 C-282.75372669 132.98803722 -279.02518173 133.56719811 -275.35351562 133.58007812 C-274.4703215 133.57160858 -273.58712738 133.56313904 -272.6771698 133.55441284 C-269.75338402 133.53098464 -266.8301226 133.53002197 -263.90625 133.53125 C-261.87747994 133.52415257 -259.84871189 133.51645419 -257.81994629 133.50817871 C-253.56626811 133.49472096 -249.31277557 133.49317124 -245.05908203 133.49902344 C-239.60094726 133.50492445 -234.14370049 133.47431715 -228.68573761 133.43390656 C-224.49590229 133.40809281 -220.30628267 133.40514631 -216.11637878 133.40879822 C-214.10367091 133.40710141 -212.09095367 133.39740533 -210.07832336 133.37965393 C-207.26710045 133.35758608 -204.45769958 133.36710307 -201.64648438 133.38476562 C-200.81106613 133.37150238 -199.97564789 133.35823914 -199.11491394 133.34457397 C-196.79528809 133.37854004 -196.79528809 133.37854004 -193 134 C-190.41168833 137.09636492 -189.52788819 140.10707938 -188.71875 144.01953125 C-188.51636719 144.95990234 -188.31398438 145.90027344 -188.10546875 146.86914062 C-187.90566406 147.84044922 -187.70585937 148.81175781 -187.5 149.8125 C-186.11550804 156.4625275 -184.56476355 162.69992674 -182 169 C-182.2165625 167.3603125 -182.2165625 167.3603125 -182.4375 165.6875 C-186.68412618 131.35620502 -183.30740183 98.75228239 -161.95214844 70.40527344 C-149.70494247 54.71542348 -134.80034588 43.35212064 -118 33 C-117.06027344 32.40574219 -116.12054687 31.81148437 -115.15234375 31.19921875 C-91.79792755 16.91065188 -64.74453499 8.15940154 -38 3 C-36.79730469 2.76667969 -35.59460938 2.53335938 -34.35546875 2.29296875 C-23.09906971 0.28444569 -11.42950641 -0.85251691 0 0 Z " fill="#007338" transform="translate(645,159)"/>
<path d="M0 0 C1.28863953 -0.00938095 2.57727905 -0.0187619 3.90496826 -0.02842712 C5.30025904 -0.01794365 6.69554339 -0.00657394 8.09082031 0.00561523 C9.53802564 0.00546003 10.98523138 0.00396753 12.43243408 0.00120544 C15.46197956 -0.00017623 18.49105033 0.01233364 21.52050781 0.03515625 C25.37808737 0.06343881 29.23487287 0.06082843 33.09251022 0.04806614 C36.08167127 0.04106185 39.07065339 0.04895358 42.05979156 0.06132317 C43.48055583 0.06579895 44.90133959 0.06620884 46.32210541 0.06225777 C58.57318677 0.04414428 68.84471406 1.37923257 78.41894531 9.50170898 C86.79807669 18.34738442 89.32733592 29.33816658 91.85644531 40.93920898 C93.66076933 49.10324449 95.5636583 57.18272945 97.85253906 65.22436523 C100.35150631 74.02804631 102.42526698 82.90260967 104.43908691 91.82794189 C107.90973036 107.16986696 111.62050085 122.4273701 115.66894531 137.62670898 C120.1686549 154.54012057 124.43870875 171.50344265 128.60644531 188.50170898 C128.90649475 189.72409271 129.20654419 190.94647644 129.51568604 192.2059021 C132.38430062 203.90421863 135.23495535 215.6056572 137.94628906 227.34155273 C138.13158676 228.14146637 138.31688446 228.94138 138.50779724 229.76553345 C139.32938499 233.31881824 140.14195467 236.8736526 140.93530273 240.43334961 C143.13988524 252.92925555 143.13988524 252.92925555 150.30439758 262.60118866 C155.2529805 265.31478717 160.16825705 265.04901639 165.69165039 264.99377441 C166.81975286 264.9984534 167.94785532 265.00313239 169.11014271 265.00795317 C172.88648709 265.01887743 176.66216379 265.00139937 180.43847656 264.98413086 C183.14733848 264.98407416 185.85617827 264.99010757 188.56503296 264.99598694 C194.39646638 265.00565657 200.22775023 265.00121509 206.05917358 264.98756409 C214.49798565 264.96818049 222.93662997 264.97464971 231.37544644 264.9881379 C245.07777985 265.00971002 258.78007364 265.01643489 272.48242188 265.01098633 C273.71184437 265.01050538 273.71184437 265.01050538 274.96610367 265.01001471 C280.78371776 265.00764158 286.60133153 265.00473707 292.41894531 265.00170898 C299.06445299 264.99824998 305.70996067 264.99503136 312.35546875 264.99243164 C313.17408264 264.99210613 313.99269654 264.99178062 314.83611691 264.99144524 C328.48807619 264.98650225 342.13998048 264.9971828 355.79192257 265.01900339 C364.20914344 265.03169807 372.62613758 265.03025669 381.04334617 265.01055253 C386.81023262 264.99794235 392.57700412 264.99940945 398.34389043 265.01192605 C401.67049308 265.01863649 404.9964851 265.01655679 408.32310104 265.00134468 C411.93110477 264.98577454 415.53825285 264.99467884 419.14624023 265.00964355 C420.19497724 264.99915466 421.24371424 264.98866576 422.32423115 264.97785902 C428.56908655 265.03561555 432.3271522 265.80646916 437.41894531 269.50170898 C440.82471301 273.70215581 441.65898168 278.15417482 441.27441406 283.51733398 C440.38069303 288.66359573 438.21432827 291.1692996 434.17285156 294.37280273 C431.09439342 296.3542602 428.46829461 296.6276207 424.9090395 296.63313675 C423.97938352 296.63697789 423.04972754 296.64081904 422.09190017 296.64477658 C421.06877847 296.6439101 420.04565676 296.64304362 418.99153137 296.64215088 C417.36303199 296.64660756 417.36303199 296.64660756 415.70163363 296.65115428 C412.04465235 296.65986184 408.38770373 296.66135131 404.73071289 296.6628418 C402.11586944 296.66746876 399.50102667 296.67249325 396.88618469 296.67788696 C389.76568212 296.69147756 382.64518518 296.69749733 375.52467179 296.70189762 C371.07396402 296.70466119 366.62325842 296.70889899 362.17255211 296.71340179 C349.83935717 296.7255999 337.50616398 296.73589522 325.17296314 296.73927689 C323.98842896 296.73960624 323.98842896 296.73960624 322.77996479 296.73994224 C321.59263317 296.74026965 321.59263317 296.74026965 320.38131505 296.74060369 C318.77740339 296.74104715 317.17349174 296.74149371 315.56958008 296.74194336 C314.77398879 296.74216479 313.9783975 296.74238622 313.15869739 296.74261436 C300.29481669 296.74655423 287.43099293 296.76398098 274.56713418 296.78730288 C261.3458146 296.81107812 248.12452349 296.82348169 234.90318221 296.8246448 C227.48590256 296.82555859 220.06869691 296.83123483 212.65143776 296.84946442 C206.3285726 296.86494954 200.00580426 296.86993707 193.68292371 296.86172631 C190.46268886 296.85784807 187.24268699 296.86027722 184.02246857 296.87278366 C141.06588937 297.02973701 141.06588937 297.02973701 125.92285156 282.22827148 C125.4265625 281.65850586 124.93027344 281.08874023 124.41894531 280.50170898 C123.85046875 279.84944336 123.28199219 279.19717773 122.69628906 278.52514648 C118.21323337 272.47548451 116.19079868 266.09280543 114.16503906 258.92358398 C113.86500473 257.87681488 113.5649704 256.83004578 113.25584412 255.7515564 C109.72577052 243.28217522 106.58881777 230.71346588 103.47838211 218.13412857 C102.7988606 215.38914211 102.1156866 212.64506877 101.43275356 209.90092945 C94.19896125 180.82529607 87.15498708 151.70330652 80.12695312 122.57739258 C77.87814219 113.2585486 75.62103658 103.94173026 73.35644531 94.62670898 C73.18136444 93.9063446 73.00628357 93.18598022 72.82589722 92.44378662 C69.66621026 79.45074768 66.46441416 66.46763232 63.16601562 53.5090332 C62.64249998 51.40162609 62.14392169 49.28794045 61.6640625 47.17016602 C61.4155957 46.09492676 61.16712891 45.0196875 60.91113281 43.91186523 C60.69569824 42.94514893 60.48026367 41.97843262 60.25830078 40.98242188 C59.32299435 38.21812617 58.73654501 37.24055849 56.41894531 35.50170898 C53.62261165 35.0544464 53.62261165 35.0544464 50.40625 35.1328125 C49.16776306 35.12592911 47.92927612 35.11904572 46.65325928 35.11195374 C45.66083851 35.11672069 45.66083851 35.11672069 44.64836884 35.12158394 C42.57078495 35.13070318 40.49410206 35.12046053 38.41656494 35.10496521 C32.51063449 35.06489939 26.60477422 35.0636553 20.69873047 35.06591797 C17.08352742 35.06596927 13.46880735 35.04669811 9.85373688 35.0165844 C7.81563878 35.00581247 5.77848458 35.01785973 3.74041748 35.03041077 C-3.21732127 34.97459988 -7.98412116 34.81416676 -13.58105469 30.50170898 C-17.39996085 26.11810241 -18.28327283 20.6333226 -18.03027344 14.96264648 C-17.02419416 9.45108175 -14.25419319 5.79396234 -9.88739014 2.42124939 C-6.199366 0.28011415 -4.22042137 0.00062117 0 0 Z " fill="#007237" transform="translate(242.5810546875,237.498291015625)"/>
<path d="M0 0 C13.2 0 26.4 0 40 0 C42.40934505 4.81869011 44.51524274 9.04389108 46.3046875 14.0078125 C46.9227124 15.70901245 46.9227124 15.70901245 47.55322266 17.44458008 C48.20750244 19.26638794 48.20750244 19.26638794 48.875 21.125 C49.34234188 22.41387125 49.81029394 23.70252139 50.27880859 24.9909668 C51.29628451 27.78975568 52.31181717 30.58923863 53.32617188 33.38916016 C56.09016199 41.0107536 58.88137563 48.62237212 61.67779541 56.2321167 C62.61820659 58.79399334 63.55502109 61.3571667 64.49169922 63.92041016 C65.06980349 65.49518456 65.64808254 67.06989481 66.2265625 68.64453125 C66.6258194 69.74084114 66.6258194 69.74084114 67.03314209 70.85929871 C68.07886305 74.184564 68.07886305 74.184564 70 77 C71.64362725 72.58469651 73.28635796 68.16906067 74.92825317 63.75311279 C75.51722312 62.1691241 76.10631389 60.58518032 76.69552612 59.00128174 C79.87724681 50.44666462 83.04942581 41.88895398 86.171875 33.3125 C86.41898727 32.63458405 86.66609955 31.95666809 86.92070007 31.25820923 C88.08307924 28.06858673 89.24212543 24.87786416 90.39575195 21.68505859 C96.73621354 4.26378646 96.73621354 4.26378646 101 0 C112.55 0 124.1 0 136 0 C136 42.9 136 85.8 136 130 C126.76 130 117.52 130 108 130 C107.67 100.63 107.34 71.26 107 41 C99.44647236 60.90248252 99.44647236 60.90248252 91.93359375 80.8203125 C90.15429687 85.5546875 90.15429687 85.5546875 89.29858398 87.83105469 C88.70722241 89.406454 88.11712063 90.9823266 87.52807617 92.55859375 C86.64589753 94.91799103 85.75897172 97.27555512 84.87109375 99.6328125 C84.47898964 100.6871196 84.47898964 100.6871196 84.07896423 101.76272583 C82.93707634 104.78245438 81.80090981 107.29863528 80 110 C77.78515625 110.35644531 77.78515625 110.35644531 75.0625 110.328125 C74.08539062 110.32296875 73.10828125 110.3178125 72.1015625 110.3125 C71.07804688 110.291875 70.05453125 110.27125 69 110.25 C67.46472656 110.24226562 67.46472656 110.24226562 65.8984375 110.234375 C58.30854111 110.15427055 58.30854111 110.15427055 56 109 C54.87168989 106.37934729 53.85171985 103.77890335 52.875 101.1015625 C52.57159698 100.28723755 52.26819397 99.4729126 51.95559692 98.63391113 C50.96368287 95.96671185 49.9818342 93.29592438 49 90.625 C48.32340331 88.80037755 47.64615502 86.97599659 46.96826172 85.15185547 C45.28341122 80.61329984 43.60646243 76.07187633 41.93249512 71.52929688 C40.32849646 67.17861587 38.71814433 62.8302883 37.10760498 58.48202515 C36.02987987 55.57187956 34.95429168 52.66098742 33.8828125 49.74853516 C33.5115625 48.74097168 33.1403125 47.7334082 32.7578125 46.6953125 C32.4395752 45.82922363 32.12133789 44.96313477 31.79345703 44.07080078 C31.03194722 41.98257536 31.03194722 41.98257536 30 40 C30 69.7 30 99.4 30 130 C20.1 130 10.2 130 0 130 C0 87.1 0 44.2 0 0 Z " fill="#007337" transform="translate(542,681)"/>
<path d="M0 0 C9.24 0 18.48 0 28 0 C28.33 15.18 28.66 30.36 29 46 C30.65 44.02 32.3 42.04 34 40 C36.5 38.35546875 36.5 38.35546875 39 37.1875 C39.825 36.78917969 40.65 36.39085937 41.5 35.98046875 C50.54010921 32.43505092 60.56941642 33.03853874 69.45703125 36.66796875 C76.33248934 40.26939918 82.05895611 45.82165453 84.81074524 53.16291809 C87.32891359 61.41195715 87.38723283 69.41510194 87.29296875 77.94921875 C87.28736001 79.4580696 87.28309597 80.96692599 87.28010559 82.4757843 C87.26875718 86.40985719 87.23937885 90.34358751 87.20599365 94.27752686 C87.17507446 98.30671558 87.161554 102.33596071 87.14648438 106.36523438 C87.11449724 114.24366282 87.06181382 122.12174907 87 130 C77.76 130 68.52 130 59 130 C58.95101562 125.81054688 58.90203125 121.62109375 58.8515625 117.3046875 C58.80699363 113.95433805 58.76049975 110.60402756 58.71270752 107.25372314 C58.66286193 103.72257285 58.61637157 100.19145284 58.578125 96.66015625 C58.53403696 92.60397866 58.4744344 88.54815565 58.4140625 84.4921875 C58.40251129 83.23260223 58.39096008 81.97301697 58.37905884 80.67526245 C58.35918915 79.49449127 58.33931946 78.31372009 58.31884766 77.09716797 C58.30552399 76.06236298 58.29220032 75.02755798 58.2784729 73.96139526 C57.74424454 68.28019131 55.98271682 64.09650873 52 60 C47.51820951 57.18287455 42.96655266 57.93250781 38 59 C33.60119533 60.66177065 31.87253588 63.23471026 29.8536377 67.42822266 C28.08570309 72.754527 28.39599776 78.34764321 28.390625 83.90625 C28.37562008 85.24005111 28.35888813 86.5738338 28.34051514 87.90759277 C28.29708741 91.39275025 28.27689792 94.87765722 28.26177979 98.36303711 C28.24211908 101.92967233 28.20037257 105.49604709 28.16015625 109.0625 C28.08305898 116.041832 28.04245725 123.02002823 28 130 C18.76 130 9.52 130 0 130 C0 87.1 0 44.2 0 0 Z " fill="#007235" transform="translate(439,681)"/>
<path d="M0 0 C1.13072182 0.00539291 1.13072182 0.00539291 2.2842865 0.01089478 C3.46956436 0.01067574 3.46956436 0.01067574 4.67878723 0.01045227 C7.30309245 0.0111516 9.92732759 0.01894489 12.55162048 0.02676392 C14.36623089 0.02862803 16.18084179 0.03005196 17.99545288 0.03105164 C22.78111653 0.03487737 27.56675003 0.04470813 32.35240173 0.05575562 C37.23195488 0.06596854 42.11151287 0.070549 46.99107361 0.07559204 C56.57246922 0.08633035 66.15383451 0.1039276 75.73521423 0.12442017 C75.73521423 8.04442017 75.73521423 15.96442017 75.73521423 24.12442017 C58.24521423 24.12442017 40.75521423 24.12442017 22.73521423 24.12442017 C22.73521423 34.02442017 22.73521423 43.92442017 22.73521423 54.12442017 C39.23521423 54.12442017 55.73521423 54.12442017 72.73521423 54.12442017 C72.73521423 62.37442017 72.73521423 70.62442017 72.73521423 79.12442017 C56.23521423 79.12442017 39.73521423 79.12442017 22.73521423 79.12442017 C22.73521423 95.95442017 22.73521423 112.78442017 22.73521423 130.12442017 C13.16521423 130.12442017 3.59521423 130.12442017 -6.26478577 130.12442017 C-6.28733259 113.32217883 -6.30576482 96.51995034 -6.31659794 79.7176981 C-6.32176095 71.91666181 -6.32880373 64.11563556 -6.34022522 56.31460571 C-6.35017191 49.51765704 -6.35663916 42.72071563 -6.35887426 35.92375988 C-6.36018139 32.32263886 -6.3632674 28.72153864 -6.37051582 25.12042427 C-6.37852941 21.10685414 -6.37877691 17.09332052 -6.37831116 13.07974243 C-6.38190643 11.87709244 -6.38550171 10.67444244 -6.38920593 9.43534851 C-6.38783127 8.34854797 -6.3864566 7.26174744 -6.38504028 6.14201355 C-6.38596208 5.19164498 -6.38688387 4.24127642 -6.3878336 3.2621088 C-6.14486608 -0.95892389 -3.62833746 0.00730355 0 0 Z " fill="#007438" transform="translate(116.26478576660156,680.8755798339844)"/>
<path d="M0 0 C7.81154116 5.80490673 12.51343878 12.53545478 14.0625 22.25 C14.14821455 24.51863488 14.18023736 26.7895648 14.17602539 29.05981445 C14.17617142 29.72378738 14.17631744 30.38776031 14.1764679 31.07185364 C14.17577483 33.25236349 14.16801099 35.43278644 14.16015625 37.61328125 C14.15828992 39.1307114 14.15686703 40.64814215 14.15586853 42.16557312 C14.15206032 46.14891235 14.14224459 50.1322148 14.13116455 54.11553955 C14.12091389 58.18444318 14.11636309 62.25335279 14.11132812 66.32226562 C14.10062074 74.29819579 14.08303774 82.27408908 14.0625 90.25 C5.4825 90.25 -3.0975 90.25 -11.9375 90.25 C-12.5975 87.28 -13.2575 84.31 -13.9375 81.25 C-15.3296875 82.61125 -15.3296875 82.61125 -16.75 84 C-25.591429 91.41766011 -35.89187391 92.30038232 -46.99902344 91.48193359 C-54.17931449 90.62283076 -59.9039424 87.2835576 -64.9375 82.25 C-70.22758697 75.49044443 -71.46806234 68.74205312 -71.3203125 60.3203125 C-70.41287248 53.04227319 -66.58880602 46.84990025 -60.9375 42.25 C-49.85585871 33.97603912 -37.42528757 33.07916435 -24 33.1875 C-22.40188477 33.19426758 -22.40188477 33.19426758 -20.77148438 33.20117188 C-18.16009709 33.21288213 -15.54882876 33.22928276 -12.9375 33.25 C-13.19854714 31.47969759 -13.47656007 29.71189133 -13.76171875 27.9453125 C-13.91471436 26.96062988 -14.06770996 25.97594727 -14.2253418 24.96142578 C-15.36013868 20.64087243 -17.13296333 19.48796275 -20.9375 17.25 C-23.22181033 16.30858941 -23.22181033 16.30858941 -25.9375 16.25 C-26.94876953 16.1571875 -26.94876953 16.1571875 -27.98046875 16.0625 C-39.0929819 15.48240143 -48.95942085 19.81529815 -58.9375 24.25 C-58.9375 16.99 -58.9375 9.73 -58.9375 2.25 C-41.53998907 -6.44875546 -17.59207805 -10.96572865 0 0 Z " fill="#017236" transform="translate(761.9375,720.75)"/>
<path d="M0 0 C1.03125 0.721875 2.0625 1.44375 3.125 2.1875 C11.80922318 9.75957471 15.20831864 21.916461 16 33 C16 38.28 16 43.56 16 49 C-4.13 49 -24.26 49 -45 49 C-43.43896477 57.66369916 -43.43896477 57.66369916 -38.375 65.0625 C-37.59125 65.371875 -36.8075 65.68125 -36 66 C-34.906875 66.53625 -33.81375 67.0725 -32.6875 67.625 C-19.18186648 72.50203433 -4.85833491 67.34482549 8 63 C8.14515677 66.10367497 8.23400853 69.20648027 8.3125 72.3125 C8.35439453 73.19357422 8.39628906 74.07464844 8.43945312 74.98242188 C8.48560749 77.41014127 8.45521999 79.61434743 8 82 C5.9140625 83.96875 5.9140625 83.96875 3 85 C1.93910156 85.38542969 0.87820313 85.77085937 -0.21484375 86.16796875 C-18.22605314 91.10073439 -38.00348466 91.43631182 -54.7578125 82.36328125 C-64.2372749 76.59963599 -70.28519704 68.20835014 -72.9375 57.375 C-75.96172633 40.22519481 -74.49246882 22.99036931 -65 8 C-50.26480333 -10.71432151 -18.98206732 -14.23655049 0 0 Z " fill="#017236" transform="translate(335,723)"/>
<path d="M0 0 C10.78594387 5.4674605 17.0402889 12.85432349 22.078125 23.74609375 C22.41972656 24.47570312 22.76132812 25.2053125 23.11328125 25.95703125 C27.50322408 36.9420975 25.57412148 49.13442503 21.078125 59.74609375 C19.36525122 63.02994645 17.41632192 65.87797837 15.078125 68.74609375 C14.52640625 69.43316406 13.9746875 70.12023437 13.40625 70.828125 C6.52851308 78.51414297 -4.00656244 84.18968929 -14.3203125 85.01953125 C-28.02275126 85.3694953 -39.0032088 82.54827103 -49.515625 73.1953125 C-58.88938156 63.65416743 -63.26791644 53.54474933 -63.421875 40.24609375 C-63.26336023 27.60546257 -59.47451565 18.21713876 -50.921875 8.74609375 C-44.31039001 2.77572245 -37.40701154 -0.71696509 -28.921875 -3.25390625 C-19.52958923 -6.38466817 -8.83260872 -3.79046444 0 0 Z " fill="#017336" transform="translate(637.921875,556.25390625)"/>
<path d="M0 0 C9.54474991 7.039867 15.11808949 16.24893119 18.27734375 27.6796875 C19.6833713 43.01519733 16.25436699 54.72704635 6.60546875 66.765625 C-0.84590421 75.07677177 -11.51244182 80.2032513 -22.6171875 80.84765625 C-35.91518288 80.93666559 -47.10192823 77.69820487 -57.1015625 68.41796875 C-66.86075699 57.95329032 -70.49177581 46.41146025 -70.0390625 32.1875 C-68.83231798 18.80902366 -61.86134161 8.24162079 -51.72265625 -0.3203125 C-36.26013596 -11.93168073 -15.57362868 -10.14683749 0 0 Z " fill="#017336" transform="translate(446.72265625,560.3203125)"/>
<path d="M0 0 C0 6.6 0 13.2 0 20 C-3.74899438 19.25020112 -7.08276683 18.32259605 -10.67260742 17.08203125 C-18.88526374 14.28689049 -24.63055044 12.91796854 -33.0625 16.1875 C-35.28086151 17.90624275 -35.28086151 17.90624275 -35.5625 20.9375 C-34.85145489 24.80874559 -34.07276202 25.54832817 -31 28 C-27.84367225 29.48997842 -24.58698423 30.67204911 -21.3125 31.875 C-10.32392381 36.12152262 -1.41512148 39.87966125 4 51 C6.22084195 59.78799421 5.37698752 67.9912958 1 76 C-5.13999903 83.50302786 -14.382563 88.65328676 -24 90 C-37.58044527 90.81690552 -50.25095435 90.09961826 -63 85 C-63 77.41 -63 69.82 -63 62 C-60.855 62.78375 -58.71 63.5675 -56.5 64.375 C-43.20382351 69.44931032 -43.20382351 69.44931032 -29.5625 67.5625 C-27.15246512 66.23099846 -27.15246512 66.23099846 -26 65 C-25.49904977 62.12693772 -25.49904977 62.12693772 -26 59 C-30.06682754 54.90867349 -34.98744932 53.18815326 -40.25 51.125 C-59.07539522 43.43537722 -59.07539522 43.43537722 -64 34 C-66.92830116 26.33063983 -66.79161405 18.65699853 -64 11 C-59.11803988 1.9593331 -51.33552782 -2.77787797 -41.73046875 -5.6875 C-27.06281458 -9.19022338 -12.98131111 -7.41789207 0 0 Z " fill="#017236" transform="translate(424,722)"/>
<path d="M0 0 C0 9.24 0 18.48 0 28 C6.6 28 13.2 28 20 28 C20.04125 31.25875 20.0825 34.5175 20.125 37.875 C20.14320801 38.90093262 20.16141602 39.92686523 20.18017578 40.98388672 C20.1851709 41.79100098 20.19016602 42.59811523 20.1953125 43.4296875 C20.21102295 44.67081299 20.21102295 44.67081299 20.22705078 45.93701172 C20 48 20 48 18 50 C16.12060547 50.22705078 16.12060547 50.22705078 13.8671875 50.1953125 C13.06152344 50.18886719 12.25585938 50.18242188 11.42578125 50.17578125 C10.16314453 50.15064453 10.16314453 50.15064453 8.875 50.125 C7.60076172 50.11146484 7.60076172 50.11146484 6.30078125 50.09765625 C4.20040116 50.07405647 2.10016556 50.03818483 0 50 C0.06893036 55.89030857 0.15692397 61.77991092 0.26245117 67.66967773 C0.29566727 69.67252764 0.32370952 71.6754704 0.34643555 73.6784668 C0.38004234 76.56078594 0.43236148 79.44225668 0.48828125 82.32421875 C0.49467117 83.21711105 0.5010611 84.11000336 0.50764465 85.029953 C0.61933576 89.772549 0.80256793 93.21881614 4 97 C9.47711223 98.82570408 14.35821709 97.94029715 20 97 C20 104.92 20 112.84 20 121 C7.33332219 123.53333556 -6.62431553 125.76705772 -18.171875 118.6640625 C-24.37046231 114.02643331 -26.24322711 108.34707421 -28 101 C-28.46649187 96.87193698 -28.47194194 92.8218949 -28.390625 88.671875 C-28.38213531 86.99934662 -28.38213531 86.99934662 -28.37347412 85.29302979 C-28.35132186 81.77822475 -28.30116549 78.26448993 -28.25 74.75 C-28.22990768 72.34767111 -28.21166174 69.94532603 -28.1953125 67.54296875 C-28.15152684 61.69495558 -28.0848308 55.84755428 -28 50 C-28.78246094 50.01160156 -29.56492187 50.02320313 -30.37109375 50.03515625 C-31.38300781 50.04417969 -32.39492188 50.05320312 -33.4375 50.0625 C-34.44683594 50.07410156 -35.45617187 50.08570313 -36.49609375 50.09765625 C-39 50 -39 50 -40 49 C-40.09880797 47.52347336 -40.13079245 46.04232764 -40.1328125 44.5625 C-40.13410156 43.66789063 -40.13539063 42.77328125 -40.13671875 41.8515625 C-40.13091797 40.44003906 -40.13091797 40.44003906 -40.125 39 C-40.12886719 38.05898438 -40.13273438 37.11796875 -40.13671875 36.1484375 C-40.13542969 35.25382813 -40.13414062 34.35921875 -40.1328125 33.4375 C-40.13112061 32.19806641 -40.13112061 32.19806641 -40.12939453 30.93359375 C-40 29 -40 29 -39 28 C-35.37 28 -31.74 28 -28 28 C-28 20.08 -28 12.16 -28 4 C-22.50349325 2.77855406 -17.28338863 1.65662216 -11.75 0.875 C-10.58984375 0.70742188 -9.4296875 0.53984375 -8.234375 0.3671875 C-5 0 -5 0 0 0 Z " fill="#037337" transform="translate(897,689)"/>
<path d="M0 0 C0.99 0.495 0.99 0.495 2 1 C0.71416016 2.2684375 0.71416016 2.2684375 -0.59765625 3.5625 C-6.62577643 9.53239452 -12.53174504 15.50716675 -18 22 C-18.89871483 23.04775486 -19.79856066 24.09454011 -20.69921875 25.140625 C-22.77118212 27.5473863 -24.83706378 29.95916317 -26.8984375 32.375 C-28.82863075 34.63625426 -30.77003231 36.88651191 -32.7265625 39.125 C-40.11603949 47.63467216 -46.77647877 56.62807616 -53.37353516 65.76074219 C-54.81983936 67.75196137 -56.28495319 69.7266541 -57.76171875 71.6953125 C-64.41944466 80.64792179 -69.79934091 90.14187146 -75 100 C-75.35835937 100.66757324 -75.71671875 101.33514648 -76.0859375 102.02294922 C-90.95354141 129.80888003 -102.03233457 163.14706395 -100 195 C-98.25699027 196.74300973 -95.84304811 196.17006086 -93.47045898 196.20532227 C-92.28931015 196.22526749 -91.10816132 196.24521271 -89.89122009 196.26576233 C-88.6058284 196.28247482 -87.32043671 196.29918732 -85.99609375 196.31640625 C-84.0338662 196.3475779 -84.0338662 196.3475779 -82.03199768 196.37937927 C-78.54844553 196.434663 -75.0648334 196.48404431 -71.58117676 196.53222656 C-68.0286727 196.58239574 -64.4762561 196.63810567 -60.92382812 196.69335938 C-53.94929454 196.80101791 -46.97468202 196.90244567 -40 197 C-42.90295772 199.25940174 -45.15047916 200.55222213 -48.71875 201.5 C-49.64002686 201.7460498 -50.56130371 201.99209961 -51.51049805 202.24560547 C-52.49703369 202.49455566 -53.48356934 202.74350586 -54.5 203 C-55.5310083 203.26055176 -56.5620166 203.52110352 -57.62426758 203.78955078 C-76.92008217 208.53230807 -95.13479091 209.41977848 -115 209 C-121.92808102 160.1154603 -101.52613643 105.82656681 -72.44140625 67.078125 C-69.22675398 63.02509142 -65.82175265 59.19966718 -62.28125 55.4296875 C-60.388818 53.4141178 -58.59121165 51.36448885 -56.8125 49.25 C-48.56506245 39.79371818 -39.5145837 30.8621904 -29.66015625 23.09765625 C-26.7965373 20.83956025 -24.02737629 18.4881737 -21.25 16.125 C-14.41708009 10.40692492 -7.23281962 5.19735399 0 0 Z " fill="#F6F9F8" transform="translate(591,215)"/>
<path d="M0 0 C0.33 8.58 0.66 17.16 1 26 C-1.475 26.268125 -3.95 26.53625 -6.5 26.8125 C-12.42138181 27.50709724 -17.52672417 28.53165992 -23 31 C-23.99 31.33 -24.98 31.66 -26 32 C-27.11785113 34.11785113 -27.11785113 34.11785113 -28 37 C-28.36427849 37.91772438 -28.36427849 37.91772438 -28.73591614 38.85398865 C-31.10865653 45.15060149 -31.47005356 50.91182135 -31.51171875 57.59765625 C-31.52966995 58.67252792 -31.54762115 59.7473996 -31.56611633 60.85484314 C-31.61990532 64.2573566 -31.65401436 67.65973232 -31.6875 71.0625 C-31.72070076 73.3821805 -31.75519294 75.70184289 -31.79101562 78.02148438 C-31.87802293 83.68100598 -31.93836187 89.33991898 -32 95 C-40.91 95 -49.82 95 -59 95 C-59.02254967 83.02196106 -59.0409143 71.0439361 -59.05181217 59.06588078 C-59.05704134 53.50460589 -59.06413958 47.94334621 -59.07543945 42.38208008 C-59.08626715 37.01992581 -59.09227658 31.65778622 -59.09487724 26.29562187 C-59.09673171 24.24499722 -59.10035272 22.1943734 -59.10573006 20.14375496 C-59.11293893 17.28209797 -59.11399101 14.42050243 -59.11352539 11.55883789 C-59.11712067 10.70216522 -59.12071594 9.84549255 -59.12442017 8.96286011 C-59.11405216 3.11405216 -59.11405216 3.11405216 -58 2 C-56.21928754 1.91273777 -54.4351686 1.89300959 -52.65234375 1.90234375 C-51.57275391 1.90556641 -50.49316406 1.90878906 -49.38085938 1.91210938 C-47.67639648 1.92467773 -47.67639648 1.92467773 -45.9375 1.9375 C-44.22723633 1.94426758 -44.22723633 1.94426758 -42.48242188 1.95117188 C-39.65492582 1.9630024 -36.82745655 1.9809385 -34 2 C-33.34 5.96 -32.68 9.92 -32 14 C-31.21625 12.80375 -30.4325 11.6075 -29.625 10.375 C-25.5782582 4.96332391 -20.04315286 1.03400693 -13.44921875 -0.65234375 C-8.8503769 -1.30512991 -4.45235168 -1.48411723 0 0 Z " fill="#017135" transform="translate(259,716)"/>
<path d="M0 0 C0 8.58 0 17.16 0 26 C-2.9390625 26.1546875 -2.9390625 26.1546875 -5.9375 26.3125 C-13.64356335 26.91623946 -21.59575647 27.97812864 -27 34 C-30.882846 41.27303579 -31.59998717 48.00333599 -31.609375 56.1328125 C-31.62591125 57.25066132 -31.64244751 58.36851013 -31.65948486 59.52023315 C-31.70767746 63.05521293 -31.72927254 66.58976341 -31.75 70.125 C-31.7781836 72.5364796 -31.80811433 74.94793945 -31.83984375 77.359375 C-31.9166853 83.2397754 -31.95747544 89.11885322 -32 95 C-40.91 95 -49.82 95 -59 95 C-59.02254967 83.02196106 -59.0409143 71.0439361 -59.05181217 59.06588078 C-59.05704134 53.50460589 -59.06413958 47.94334621 -59.07543945 42.38208008 C-59.08626715 37.01992581 -59.09227658 31.65778622 -59.09487724 26.29562187 C-59.09673171 24.24499722 -59.10035272 22.1943734 -59.10573006 20.14375496 C-59.11293893 17.28209797 -59.11399101 14.42050243 -59.11352539 11.55883789 C-59.11712067 10.70216522 -59.12071594 9.84549255 -59.12442017 8.96286011 C-59.11405216 3.11405216 -59.11405216 3.11405216 -58 2 C-56.29227642 1.91286169 -54.58101351 1.89299993 -52.87109375 1.90234375 C-51.31938477 1.90717773 -51.31938477 1.90717773 -49.73632812 1.91210938 C-48.64771484 1.92048828 -47.55910156 1.92886719 -46.4375 1.9375 C-44.7987793 1.94426758 -44.7987793 1.94426758 -43.12695312 1.95117188 C-40.41791505 1.96300174 -37.70898401 1.97948457 -35 2 C-33.61923249 6.0075935 -32.6001884 9.79868118 -32 14 C-31.48953125 13.22076172 -31.48953125 13.22076172 -30.96875 12.42578125 C-23.98294911 2.37440284 -12.41221148 -4.13740383 0 0 Z " fill="#017135" transform="translate(851,716)"/>
<path d="M0 0 C4.44846179 2.5093887 7.03389787 5.72154358 8.8125 10.5 C9.69123343 15.46912093 9.48374916 19.86050877 7.125 24.375 C4.45612202 27.98159186 1.8292462 30.4916269 -2.1875 32.5 C-8.20896639 33.23183976 -13.62962168 33.52271834 -18.75 29.9375 C-23.21057817 25.98696715 -24.92924895 21.91034314 -25.5625 16 C-24.81073983 8.98357178 -22.21384532 5.01722182 -16.90625 0.6640625 C-11.78384496 -2.80520273 -5.46180158 -2.34816091 0 0 Z " fill="#F7F9F8" transform="translate(627.1875,580.5)"/>
<path d="M0 0 C4.73447156 2.70414574 8.14744964 5.83166277 9.7734375 11.12890625 C10.59510571 17.07891741 10.28894713 22.09000912 6.7734375 27.12890625 C3.00278436 31.0791143 -0.37350121 33.14627386 -5.7890625 34.09765625 C-11.15249682 34.16641823 -15.93929897 32.15970316 -19.93359375 28.61328125 C-23.4446398 24.28265384 -24.53090839 19.64517553 -24.2265625 14.12890625 C-23.20012808 8.26967642 -20.51043907 4.93193849 -15.9453125 1.2578125 C-11.26317673 -1.81749941 -5.14130971 -2.01142467 0 0 Z " fill="#F7F9F8" transform="translate(428.2265625,579.87109375)"/>
<path d="M0 0 C1.13072182 0.00539291 1.13072182 0.00539291 2.2842865 0.01089478 C3.46956436 0.01067574 3.46956436 0.01067574 4.67878723 0.01045227 C7.30309245 0.0111516 9.92732759 0.01894489 12.55162048 0.02676392 C14.36623089 0.02862803 16.18084179 0.03005196 17.99545288 0.03105164 C22.78111653 0.03487737 27.56675003 0.04470813 32.35240173 0.05575562 C37.23195488 0.06596854 42.11151287 0.070549 46.99107361 0.07559204 C56.57246922 0.08633035 66.15383451 0.1039276 75.73521423 0.12442017 C75.73521423 8.04442017 75.73521423 15.96442017 75.73521423 24.12442017 C58.24521423 24.12442017 40.75521423 24.12442017 22.73521423 24.12442017 C22.73521423 33.69442017 22.73521423 43.26442017 22.73521423 53.12442017 C22.40521423 53.12442017 22.07521423 53.12442017 21.73521423 53.12442017 C21.73521423 43.22442017 21.73521423 33.32442017 21.73521423 23.12442017 C39.22521423 23.12442017 56.71521423 23.12442017 74.73521423 23.12442017 C74.73521423 16.19442017 74.73521423 9.26442017 74.73521423 2.12442017 C48.66521423 2.12442017 22.59521423 2.12442017 -4.26478577 2.12442017 C-4.26478577 43.70442017 -4.26478577 85.28442017 -4.26478577 128.12442017 C4.31521423 128.12442017 12.89521423 128.12442017 21.73521423 128.12442017 C21.73521423 111.95442017 21.73521423 95.78442017 21.73521423 79.12442017 C22.06521423 79.12442017 22.39521423 79.12442017 22.73521423 79.12442017 C22.73521423 95.95442017 22.73521423 112.78442017 22.73521423 130.12442017 C13.16521423 130.12442017 3.59521423 130.12442017 -6.26478577 130.12442017 C-6.28733259 113.32217883 -6.30576482 96.51995034 -6.31659794 79.7176981 C-6.32176095 71.91666181 -6.32880373 64.11563556 -6.34022522 56.31460571 C-6.35017191 49.51765704 -6.35663916 42.72071563 -6.35887426 35.92375988 C-6.36018139 32.32263886 -6.3632674 28.72153864 -6.37051582 25.12042427 C-6.37852941 21.10685414 -6.37877691 17.09332052 -6.37831116 13.07974243 C-6.38190643 11.87709244 -6.38550171 10.67444244 -6.38920593 9.43534851 C-6.38783127 8.34854797 -6.3864566 7.26174744 -6.38504028 6.14201355 C-6.38596208 5.19164498 -6.38688387 4.24127642 -6.3878336 3.2621088 C-6.14486608 -0.95892389 -3.62833746 0.00730355 0 0 Z " fill="#0D682A" transform="translate(116.26478576660156,680.8755798339844)"/>
<path d="M0 0 C0.32926038 6.74374033 0.49457378 12.09537534 -3 18 C-7.59089233 22.36134771 -11.1566319 23.17731808 -17.375 23.3125 C-18.49648438 23.34988281 -19.61796875 23.38726563 -20.7734375 23.42578125 C-24.65385586 22.91371636 -26.23562425 21.70908823 -29 19 C-30.74391009 15.51217982 -30.56723316 11.80573875 -30 8 C-22.98574068 -2.08299777 -10.80597035 -0.33154682 0 0 Z " fill="#F6F8F7" transform="translate(749,769)"/>
<path d="M0 0 C1.485 0.99 1.485 0.99 3 2 C3.36914349 4.19826698 3.36914349 4.19826698 3.36076355 6.98599243 C3.36488754 8.04051102 3.36901154 9.0950296 3.3732605 10.1815033 C3.36247467 11.34315506 3.35168884 12.50480682 3.34057617 13.70166016 C3.34123329 15.53089272 3.34123329 15.53089272 3.34190369 17.39707947 C3.34016855 20.74624398 3.32509703 24.0948575 3.30418181 27.44392443 C3.28546052 30.94195981 3.28366818 34.44000209 3.28010559 37.93807983 C3.2707717 44.56441181 3.24613988 51.19059575 3.21605712 57.81686246 C3.1825548 65.35967068 3.16603762 72.90248587 3.15097082 80.44534993 C3.11959135 95.96366701 3.06456268 111.48178012 3 127 C10.92 127 18.84 127 27 127 C26.9896875 123.21917969 26.979375 119.43835938 26.96875 115.54296875 C26.95353525 100.16026118 27.19356587 84.7850096 27.46356201 69.4052124 C27.52557386 65.84373776 27.58491638 62.28221855 27.64453125 58.72070312 C27.76051363 51.81375816 27.87928066 44.90686377 28 38 C30.60680025 40.60680025 30.23599965 42.41068645 30.24884033 45.96035767 C30.24164978 46.79473358 30.23445923 47.6291095 30.22705078 48.48876953 C30.22734283 49.36688293 30.22763489 50.24499634 30.22793579 51.14971924 C30.22653912 54.06084981 30.21096213 56.97172647 30.1953125 59.8828125 C30.19158357 61.89777486 30.18873603 63.91273904 30.18673706 65.92770386 C30.17909118 71.23782332 30.1594345 76.54783382 30.1373291 81.85791016 C30.11689121 87.27374803 30.10773975 92.68960345 30.09765625 98.10546875 C30.07618949 108.7370348 30.04099959 119.36849131 30 130 C20.1 130 10.2 130 0 130 C0 87.1 0 44.2 0 0 Z " fill="#2A8652" transform="translate(542,681)"/>
<path d="M0 0 C5.67026624 2.03273696 8.58325818 5.16651636 11.25 10.5 C12 13 12 13 12 18 C1.11 18 -9.78 18 -21 18 C-18.90864645 9.63458579 -17.85559645 5.92196668 -11 1 C-7.54155176 -0.72922412 -3.78834735 -0.35136443 0 0 Z " fill="#EFF5F2" transform="translate(311,736)"/>
<path d="M0 0 C0.33 0 0.66 0 1 0 C1 42.57 1 85.14 1 129 C-8.24 129 -17.48 129 -27 129 C-27 98.97 -27 68.94 -27 38 C-26.01 37.505 -26.01 37.505 -25 37 C-25 66.7 -25 96.4 -25 127 C-16.75 127 -8.5 127 0 127 C0 85.09 0 43.18 0 0 Z " fill="#035C19" transform="translate(677,682)"/>
<path d="M0 0 C2 1 2 1 3.2890625 4.37890625 C3.74198724 5.77098377 4.18697613 7.16566224 4.625 8.5625 C4.85445312 9.27341797 5.08390625 9.98433594 5.3203125 10.71679688 C5.88694208 12.47570953 6.44434258 14.23759039 7 16 C5.68 15.67 4.36 15.34 3 15 C3 39.42 3 63.84 3 89 C2.67 89 2.34 89 2 89 C1.9845388 87.74783943 1.9845388 87.74783943 1.96876526 86.47038269 C1.8698521 78.5148134 1.767225 70.55930191 1.66066074 62.60383129 C1.60602994 58.51610173 1.55272196 54.42836476 1.50268555 50.34057617 C1.22636092 25.1542873 1.22636092 25.1542873 0 0 Z " fill="#EFF5F1" transform="translate(571,719)"/>
<path d="M0 0 C0.66 0.33 1.32 0.66 2 1 C1.835 1.78375 1.67 2.5675 1.5 3.375 C0.9376293 5.88208039 0.9376293 5.88208039 1 8 C-2.80495995 9.45220234 -6.61353686 10.89441785 -10.42578125 12.32739258 C-11.72271959 12.81650597 -13.01862796 13.3083594 -14.31347656 13.80297852 C-16.17241196 14.51253387 -18.03537544 15.21150798 -19.8984375 15.91015625 C-21.57945557 16.54642944 -21.57945557 16.54642944 -23.29443359 17.19555664 C-26 18 -26 18 -28 17 C-26.90042969 16.35933594 -25.80085937 15.71867187 -24.66796875 15.05859375 C-23.17424527 14.18529578 -21.6807726 13.31156871 -20.1875 12.4375 C-19.41591553 11.98656982 -18.64433105 11.53563965 -17.84936523 11.07104492 C-12.45138785 7.8995714 -7.19070079 4.59004649 -2.00390625 1.08203125 C-1.34261719 0.72496094 -0.68132813 0.36789062 0 0 Z " fill="#F4F9F7" transform="translate(559,341)"/>
<path d="M0 0 C2 2 2 2 3 4 C3.33 4 3.66 4 4 4 C4.33695862 6.72876308 4.66968429 9.45793163 5 12.1875 C5.09539062 12.95642578 5.19078125 13.72535156 5.2890625 14.51757812 C5.75192894 18.36928811 6.12467468 22.11170851 6 26 C3.81389308 22.72083962 2.65897958 19.454309 1.4375 15.75 C1.21642578 15.10675781 0.99535156 14.46351563 0.76757812 13.80078125 C-0.65274059 9.53553411 -1.48507061 5.46657849 -2 1 C-1.34 0.67 -0.68 0.34 0 0 Z " fill="#E0EFE8" transform="translate(458,305)"/>
<path d="M0 0 C19.14 0 38.28 0 58 0 C53.5 3.375 53.5 3.375 50 4 C49.505 2.515 49.505 2.515 49 1 C32.83 1 16.66 1 0 1 C0 0.67 0 0.34 0 0 Z " fill="#EAF4F0" transform="translate(493,412)"/>
<path d="M0 0 C0.66 0.33 1.32 0.66 2 1 C1.5 3.2890625 1.5 3.2890625 0 6 C-2.52351231 7.53191686 -5.21118743 8.43401953 -8 9.375 C-8.73734375 9.64699219 -9.4746875 9.91898437 -10.234375 10.19921875 C-12.13129198 10.87421658 -14.06450802 11.44521458 -16 12 C-16.66 11.67 -17.32 11.34 -18 11 C-17.23538452 10.55346069 -17.23538452 10.55346069 -16.45532227 10.09790039 C-14.15678336 8.75435311 -11.85962753 7.40845882 -9.5625 6.0625 C-8.76005859 5.59392578 -7.95761719 5.12535156 -7.13085938 4.64257812 C-6.36708984 4.19462891 -5.60332031 3.74667969 -4.81640625 3.28515625 C-3.75595093 2.66459351 -3.75595093 2.66459351 -2.67407227 2.03149414 C-1.03106712 1.10809195 -1.03106712 1.10809195 0 0 Z " fill="#EAF6F0" transform="translate(549,347)"/>
<path d="M0 0 C0.66 0 1.32 0 2 0 C2 6.27 2 12.54 2 19 C0.68 19.33 -0.64 19.66 -2 20 C-1.34 19.67 -0.68 19.34 0 19 C-0.08378906 17.71222656 -0.16757812 16.42445313 -0.25390625 15.09765625 C-0.35704621 13.41928773 -0.45989584 11.74090136 -0.5625 10.0625 C-0.61857422 9.21236328 -0.67464844 8.36222656 -0.73242188 7.48632812 C-0.80493164 6.27299805 -0.80493164 6.27299805 -0.87890625 5.03515625 C-0.9260376 4.2862915 -0.97316895 3.53742676 -1.02172852 2.76586914 C-1 1 -1 1 0 0 Z " fill="#09682B" transform="translate(341,786)"/>
<path d="M0 0 C0.66 0.33 1.32 0.66 2 1 C1.54810561 3.08473947 1.08823175 5.16775036 0.625 7.25 C0.36976563 8.41015625 0.11453125 9.5703125 -0.1484375 10.765625 C-0.86222981 13.47672605 -1.52404629 15.63396733 -3 18 C-3.66 18.33 -4.32 18.66 -5 19 C-4.35561067 16.39546825 -3.7095496 13.7913709 -3.0625 11.1875 C-2.88009766 10.44951172 -2.69769531 9.71152344 -2.50976562 8.95117188 C-1.7577385 5.92939016 -0.98514427 2.95543282 0 0 Z " fill="#E9F4F0" transform="translate(719,374)"/>
<path d="M0 0 C0.66 0.33 1.32 0.66 2 1 C1.76940901 2.41995501 1.51455862 3.83597978 1.25 5.25 C1.11078125 6.03890625 0.9715625 6.8278125 0.828125 7.640625 C-0.19118429 10.54469485 -1.72046447 11.9799238 -4 14 C-3.52525225 11.85318469 -3.04508251 9.70756772 -2.5625 7.5625 C-2.29566406 6.36753906 -2.02882813 5.17257812 -1.75390625 3.94140625 C-1 1 -1 1 0 0 Z " fill="#EDF6F3" transform="translate(738,309)"/>
<path d="M0 0 C0.66 0.33 1.32 0.66 2 1 C1.39009109 4.55780196 0.4216319 7.6828589 -1 11 C-1.66 11 -2.32 11 -3 11 C-2.69217504 9.35328588 -2.37860766 7.70764424 -2.0625 6.0625 C-1.88847656 5.14597656 -1.71445312 4.22945313 -1.53515625 3.28515625 C-1 1 -1 1 0 0 Z " fill="#E2EFE9" transform="translate(732,330)"/>
<path d="M0 0 C0.66 0.33 1.32 0.66 2 1 C1.71872579 2.48117801 1.42466268 3.95993249 1.125 5.4375 C0.96257812 6.26121094 0.80015625 7.08492188 0.6328125 7.93359375 C0.42398437 8.61550781 0.21515625 9.29742187 0 10 C-0.99 10.495 -0.99 10.495 -2 11 C-2.33 11.66 -2.66 12.32 -3 13 C-2.88490339 11.58249437 -2.75746342 10.16598831 -2.625 8.75 C-2.55539062 7.96109375 -2.48578125 7.1721875 -2.4140625 6.359375 C-1.98492887 3.914123 -1.21399362 2.15163097 0 0 Z " fill="#076626" transform="translate(500,351)"/>
<path d="M0 0 C3.55780196 0.60990891 6.6828589 1.5783681 10 3 C10 3.99 10 4.98 10 6 C8.5164999 5.57742724 7.03823576 5.13643678 5.5625 4.6875 C4.73878906 4.44386719 3.91507812 4.20023438 3.06640625 3.94921875 C2.04353516 3.47935547 2.04353516 3.47935547 1 3 C0.67 2.01 0.34 1.02 0 0 Z " fill="#F1F7F5" transform="translate(409,714)"/>
<path d="M0 0 C2 2 2 2 2.125 5.125 C2.08375 6.07375 2.0425 7.0225 2 8 C1.01 8 0.02 8 -1 8 C-1.33 5.69 -1.66 3.38 -2 1 C-1.34 0.67 -0.68 0.34 0 0 Z " fill="#E8F2EE" transform="translate(458,305)"/>
<path d="M0 0 C0.66 0 1.32 0 2 0 C2.66 2.97 3.32 5.94 4 9 C3.01 9.495 3.01 9.495 2 10 C1.34 6.7 0.68 3.4 0 0 Z " fill="#EEF6F2" transform="translate(307,302)"/>
<path d="M0 0 C0.33 0 0.66 0 1 0 C1.66 4.29 2.32 8.58 3 13 C2.34 12.67 1.68 12.34 1 12 C1 11.34 1 10.68 1 10 C0.34 10 -0.32 10 -1 10 C-0.67 6.7 -0.34 3.4 0 0 Z " fill="#015D17" transform="translate(403,592)"/>
<path d="M0 0 C0.66 0.33 1.32 0.66 2 1 C1.01 1.33 0.02 1.66 -1 2 C-1.33 2.99 -1.66 3.98 -2 5 C-5.5625 6.1875 -5.5625 6.1875 -9 7 C-6.25604436 4.05278838 -3.61662784 1.80831392 0 0 Z " fill="#086324" transform="translate(595,330)"/>
<path d="M0 0 C0.33 1.32 0.66 2.64 1 4 C-0.65 5.32 -2.3 6.64 -4 8 C-4.66 7.67 -5.32 7.34 -6 7 C-4.02 4.69 -2.04 2.38 0 0 Z " fill="#076427" transform="translate(549,265)"/>
<path d="M0 0 C2 3 2 3 2 7 C2.66 7 3.32 7 4 7 C4 8.32 4 9.64 4 11 C3.34 11 2.68 11 2 11 C0.57741188 7.17679443 -0.24042276 4.08718695 0 0 Z " fill="#086626" transform="translate(350,466)"/>
<path d="M0 0 C0.99 0.33 1.98 0.66 3 1 C3.33 3.31 3.66 5.62 4 8 C2 6.25 2 6.25 0 4 C0 2.68 0 1.36 0 0 Z " fill="#EDF6F2" transform="translate(370,356)"/>
</svg>
